<mxfile host="app.diagrams.net" modified="2022-06-21T17:51:42.059Z" agent="5.0 (Windows NT 10.0; Win64; x64) AppleWebKit/537.36 (KHTML, like Gecko) Chrome/102.0.0.0 Safari/537.36" etag="v0u2f3bno_kNsDt-eT21" version="18.1.1" type="github">
  <diagram id="bmz4qM5Y3sQAAbuNU5tM" name="第 1 页">
    <mxGraphModel dx="1484" dy="2076" grid="1" gridSize="10" guides="1" tooltips="1" connect="1" arrows="1" fold="1" page="1" pageScale="1" pageWidth="827" pageHeight="1169" math="0" shadow="0">
      <root>
        <mxCell id="0" />
        <mxCell id="1" parent="0" />
        <mxCell id="fH-QqKqAevxP8JKAihMR-78" value="" style="rounded=0;whiteSpace=wrap;html=1;labelBackgroundColor=#FFFFFF;fontSize=18;fontColor=none;fillColor=#66B2FF;" vertex="1" parent="1">
          <mxGeometry x="670" y="-40" width="210" height="320" as="geometry" />
        </mxCell>
        <mxCell id="fH-QqKqAevxP8JKAihMR-61" value="&lt;span style=&quot;color: rgb(51, 51, 51); font-family: &amp;quot;PingFang SC&amp;quot;, Avenir, Tahoma, Arial, &amp;quot;Lantinghei SC&amp;quot;, &amp;quot;Microsoft Yahei&amp;quot;, &amp;quot;Hiragino Sans GB&amp;quot;, &amp;quot;Microsoft Sans Serif&amp;quot;, &amp;quot;WenQuanYi Micro Hei&amp;quot;, Helvetica, sans-serif; font-size: 16px; text-align: start;&quot;&gt;消息长度&lt;/span&gt;" style="text;html=1;resizable=0;autosize=1;align=center;verticalAlign=middle;points=[];fillColor=none;strokeColor=none;rounded=0;labelBackgroundColor=#FFFFFF;fontSize=18;fontColor=none;" vertex="1" parent="1">
          <mxGeometry x="120" y="130" width="80" height="30" as="geometry" />
        </mxCell>
        <mxCell id="fH-QqKqAevxP8JKAihMR-62" value="&lt;span style=&quot;color: rgb(51, 51, 51); font-family: &amp;quot;PingFang SC&amp;quot;, Avenir, Tahoma, Arial, &amp;quot;Lantinghei SC&amp;quot;, &amp;quot;Microsoft Yahei&amp;quot;, &amp;quot;Hiragino Sans GB&amp;quot;, &amp;quot;Microsoft Sans Serif&amp;quot;, &amp;quot;WenQuanYi Micro Hei&amp;quot;, Helvetica, sans-serif; font-size: 16px; text-align: start;&quot;&gt;消息类型&lt;/span&gt;" style="text;html=1;resizable=0;autosize=1;align=center;verticalAlign=middle;points=[];fillColor=none;strokeColor=none;rounded=0;labelBackgroundColor=#FFFFFF;fontSize=18;fontColor=none;" vertex="1" parent="1">
          <mxGeometry x="120" y="170" width="80" height="30" as="geometry" />
        </mxCell>
        <mxCell id="fH-QqKqAevxP8JKAihMR-63" value="&lt;span style=&quot;color: rgb(51, 51, 51); font-family: &amp;quot;PingFang SC&amp;quot;, Avenir, Tahoma, Arial, &amp;quot;Lantinghei SC&amp;quot;, &amp;quot;Microsoft Yahei&amp;quot;, &amp;quot;Hiragino Sans GB&amp;quot;, &amp;quot;Microsoft Sans Serif&amp;quot;, &amp;quot;WenQuanYi Micro Hei&amp;quot;, Helvetica, sans-serif; font-size: 16px; text-align: start;&quot;&gt;发送消息节点的名称&lt;/span&gt;" style="text;html=1;resizable=0;autosize=1;align=center;verticalAlign=middle;points=[];fillColor=none;strokeColor=none;rounded=0;labelBackgroundColor=#FFFFFF;fontSize=18;fontColor=none;" vertex="1" parent="1">
          <mxGeometry x="35" y="250" width="160" height="30" as="geometry" />
        </mxCell>
        <mxCell id="fH-QqKqAevxP8JKAihMR-64" value="&lt;span style=&quot;color: rgb(51, 51, 51); font-family: &amp;quot;PingFang SC&amp;quot;, Avenir, Tahoma, Arial, &amp;quot;Lantinghei SC&amp;quot;, &amp;quot;Microsoft Yahei&amp;quot;, &amp;quot;Hiragino Sans GB&amp;quot;, &amp;quot;Microsoft Sans Serif&amp;quot;, &amp;quot;WenQuanYi Micro Hei&amp;quot;, Helvetica, sans-serif; font-size: 16px; text-align: start;&quot;&gt;发送消息节点负责的slots&lt;/span&gt;" style="text;html=1;resizable=0;autosize=1;align=center;verticalAlign=middle;points=[];fillColor=none;strokeColor=none;rounded=0;labelBackgroundColor=#FFFFFF;fontSize=18;fontColor=none;" vertex="1" parent="1">
          <mxGeometry x="5" y="290" width="190" height="30" as="geometry" />
        </mxCell>
        <mxCell id="fH-QqKqAevxP8JKAihMR-65" value="&lt;span style=&quot;color: rgb(51, 51, 51); font-family: &amp;quot;PingFang SC&amp;quot;, Avenir, Tahoma, Arial, &amp;quot;Lantinghei SC&amp;quot;, &amp;quot;Microsoft Yahei&amp;quot;, &amp;quot;Hiragino Sans GB&amp;quot;, &amp;quot;Microsoft Sans Serif&amp;quot;, &amp;quot;WenQuanYi Micro Hei&amp;quot;, Helvetica, sans-serif; font-size: 16px; text-align: start;&quot;&gt;发送消息节点的IP&lt;/span&gt;" style="text;html=1;resizable=0;autosize=1;align=center;verticalAlign=middle;points=[];fillColor=none;strokeColor=none;rounded=0;labelBackgroundColor=#FFFFFF;fontSize=18;fontColor=none;" vertex="1" parent="1">
          <mxGeometry x="55" y="330" width="140" height="30" as="geometry" />
        </mxCell>
        <mxCell id="fH-QqKqAevxP8JKAihMR-66" value="&lt;span style=&quot;color: rgb(51, 51, 51); font-family: &amp;quot;PingFang SC&amp;quot;, Avenir, Tahoma, Arial, &amp;quot;Lantinghei SC&amp;quot;, &amp;quot;Microsoft Yahei&amp;quot;, &amp;quot;Hiragino Sans GB&amp;quot;, &amp;quot;Microsoft Sans Serif&amp;quot;, &amp;quot;WenQuanYi Micro Hei&amp;quot;, Helvetica, sans-serif; font-size: 16px; text-align: start;&quot;&gt;发送消息节点的通信端口&lt;/span&gt;" style="text;html=1;resizable=0;autosize=1;align=center;verticalAlign=middle;points=[];fillColor=none;strokeColor=none;rounded=0;labelBackgroundColor=#FFFFFF;fontSize=18;fontColor=none;" vertex="1" parent="1">
          <mxGeometry x="10" y="370" width="190" height="30" as="geometry" />
        </mxCell>
        <mxCell id="fH-QqKqAevxP8JKAihMR-67" value="&lt;span style=&quot;color: rgb(51, 51, 51); font-family: &amp;quot;PingFang SC&amp;quot;, Avenir, Tahoma, Arial, &amp;quot;Lantinghei SC&amp;quot;, &amp;quot;Microsoft Yahei&amp;quot;, &amp;quot;Hiragino Sans GB&amp;quot;, &amp;quot;Microsoft Sans Serif&amp;quot;, &amp;quot;WenQuanYi Micro Hei&amp;quot;, Helvetica, sans-serif; font-size: 16px; text-align: start;&quot;&gt;实际消息体&lt;/span&gt;" style="text;html=1;resizable=0;autosize=1;align=center;verticalAlign=middle;points=[];fillColor=none;strokeColor=none;rounded=0;labelBackgroundColor=#FFFFFF;fontSize=18;fontColor=none;" vertex="1" parent="1">
          <mxGeometry x="100" y="450" width="100" height="30" as="geometry" />
        </mxCell>
        <mxCell id="fH-QqKqAevxP8JKAihMR-69" value="&lt;span style=&quot;color: rgb(51, 51, 51); font-family: &amp;quot;PingFang SC&amp;quot;, Avenir, Tahoma, Arial, &amp;quot;Lantinghei SC&amp;quot;, &amp;quot;Microsoft Yahei&amp;quot;, &amp;quot;Hiragino Sans GB&amp;quot;, &amp;quot;Microsoft Sans Serif&amp;quot;, &amp;quot;WenQuanYi Micro Hei&amp;quot;, Helvetica, sans-serif; font-size: 16px; text-align: start;&quot;&gt;Ping、Pong和Meet消息类型对应的数据结构&lt;/span&gt;" style="text;html=1;resizable=0;autosize=1;align=center;verticalAlign=middle;points=[];fillColor=none;strokeColor=none;rounded=0;labelBackgroundColor=#FFFFFF;fontSize=18;fontColor=none;" vertex="1" parent="1">
          <mxGeometry x="760" y="365" width="320" height="30" as="geometry" />
        </mxCell>
        <mxCell id="fH-QqKqAevxP8JKAihMR-70" value="&lt;span style=&quot;color: rgb(51, 51, 51); font-family: &amp;quot;PingFang SC&amp;quot;, Avenir, Tahoma, Arial, &amp;quot;Lantinghei SC&amp;quot;, &amp;quot;Microsoft Yahei&amp;quot;, &amp;quot;Hiragino Sans GB&amp;quot;, &amp;quot;Microsoft Sans Serif&amp;quot;, &amp;quot;WenQuanYi Micro Hei&amp;quot;, Helvetica, sans-serif; font-size: 16px; text-align: start;&quot;&gt;Fail消息类型对应的数据结构&lt;/span&gt;" style="text;html=1;resizable=0;autosize=1;align=center;verticalAlign=middle;points=[];fillColor=none;strokeColor=none;rounded=0;labelBackgroundColor=#FFFFFF;fontSize=18;fontColor=none;" vertex="1" parent="1">
          <mxGeometry x="760" y="400" width="210" height="30" as="geometry" />
        </mxCell>
        <mxCell id="fH-QqKqAevxP8JKAihMR-71" value="&lt;span style=&quot;color: rgb(51, 51, 51); font-family: &amp;quot;PingFang SC&amp;quot;, Avenir, Tahoma, Arial, &amp;quot;Lantinghei SC&amp;quot;, &amp;quot;Microsoft Yahei&amp;quot;, &amp;quot;Hiragino Sans GB&amp;quot;, &amp;quot;Microsoft Sans Serif&amp;quot;, &amp;quot;WenQuanYi Micro Hei&amp;quot;, Helvetica, sans-serif; font-size: 16px; text-align: start;&quot;&gt;Publish消息类型对应的数据结构&lt;/span&gt;" style="text;html=1;resizable=0;autosize=1;align=center;verticalAlign=middle;points=[];fillColor=none;strokeColor=none;rounded=0;labelBackgroundColor=#FFFFFF;fontSize=18;fontColor=none;" vertex="1" parent="1">
          <mxGeometry x="760" y="450" width="240" height="30" as="geometry" />
        </mxCell>
        <mxCell id="fH-QqKqAevxP8JKAihMR-72" value="&lt;span style=&quot;color: rgb(51, 51, 51); font-family: &amp;quot;PingFang SC&amp;quot;, Avenir, Tahoma, Arial, &amp;quot;Lantinghei SC&amp;quot;, &amp;quot;Microsoft Yahei&amp;quot;, &amp;quot;Hiragino Sans GB&amp;quot;, &amp;quot;Microsoft Sans Serif&amp;quot;, &amp;quot;WenQuanYi Micro Hei&amp;quot;, Helvetica, sans-serif; font-size: 16px; text-align: start;&quot;&gt;Update消息类型对应的数据结构&lt;/span&gt;" style="text;html=1;resizable=0;autosize=1;align=center;verticalAlign=middle;points=[];fillColor=none;strokeColor=none;rounded=0;labelBackgroundColor=#FFFFFF;fontSize=18;fontColor=none;" vertex="1" parent="1">
          <mxGeometry x="760" y="490" width="240" height="30" as="geometry" />
        </mxCell>
        <mxCell id="fH-QqKqAevxP8JKAihMR-73" value="&lt;span style=&quot;color: rgb(51, 51, 51); font-family: &amp;quot;PingFang SC&amp;quot;, Avenir, Tahoma, Arial, &amp;quot;Lantinghei SC&amp;quot;, &amp;quot;Microsoft Yahei&amp;quot;, &amp;quot;Hiragino Sans GB&amp;quot;, &amp;quot;Microsoft Sans Serif&amp;quot;, &amp;quot;WenQuanYi Micro Hei&amp;quot;, Helvetica, sans-serif; font-size: 16px; text-align: start;&quot;&gt;Module消息类型对应的数据结构&lt;/span&gt;" style="text;html=1;resizable=0;autosize=1;align=center;verticalAlign=middle;points=[];fillColor=none;strokeColor=none;rounded=0;labelBackgroundColor=#FFFFFF;fontSize=18;fontColor=none;" vertex="1" parent="1">
          <mxGeometry x="760" y="530" width="240" height="30" as="geometry" />
        </mxCell>
        <mxCell id="fH-QqKqAevxP8JKAihMR-18" value="" style="group" vertex="1" connectable="0" parent="1">
          <mxGeometry x="200" y="40" width="550" height="680" as="geometry" />
        </mxCell>
        <mxCell id="fH-QqKqAevxP8JKAihMR-1" value="" style="rounded=0;whiteSpace=wrap;html=1;fillColor=#99CCFF;" vertex="1" parent="fH-QqKqAevxP8JKAihMR-18">
          <mxGeometry width="320" height="680" as="geometry" />
        </mxCell>
        <mxCell id="fH-QqKqAevxP8JKAihMR-4" value="" style="rounded=0;whiteSpace=wrap;html=1;labelBackgroundColor=#99CCFF;fillColor=#FFFFFF;" vertex="1" parent="fH-QqKqAevxP8JKAihMR-18">
          <mxGeometry x="44.8" y="40" width="235.2" height="490" as="geometry" />
        </mxCell>
        <mxCell id="fH-QqKqAevxP8JKAihMR-7" value="" style="endArrow=none;html=1;rounded=0;exitX=0;exitY=0.25;exitDx=0;exitDy=0;" edge="1" parent="fH-QqKqAevxP8JKAihMR-18">
          <mxGeometry width="50" height="50" relative="1" as="geometry">
            <mxPoint x="44.8" y="120" as="sourcePoint" />
            <mxPoint x="280" y="120" as="targetPoint" />
          </mxGeometry>
        </mxCell>
        <mxCell id="fH-QqKqAevxP8JKAihMR-16" value="&lt;span style=&quot;color: rgb(51, 51, 51); font-family: &amp;quot;PingFang SC&amp;quot;, Avenir, Tahoma, Arial, &amp;quot;Lantinghei SC&amp;quot;, &amp;quot;Microsoft Yahei&amp;quot;, &amp;quot;Hiragino Sans GB&amp;quot;, &amp;quot;Microsoft Sans Serif&amp;quot;, &amp;quot;WenQuanYi Micro Hei&amp;quot;, Helvetica, sans-serif; font-size: 16px; text-align: start;&quot;&gt;sender[CLUSTER_NAMELEN]&lt;/span&gt;" style="text;html=1;resizable=0;autosize=1;align=center;verticalAlign=middle;points=[];fillColor=none;strokeColor=none;rounded=0;labelBackgroundColor=#FFFFFF;fontSize=18;fontColor=none;" vertex="1" parent="fH-QqKqAevxP8JKAihMR-18">
          <mxGeometry x="54.8" y="210" width="220" height="30" as="geometry" />
        </mxCell>
        <mxCell id="fH-QqKqAevxP8JKAihMR-27" value="&lt;span style=&quot;color: rgb(51, 51, 51); font-family: &amp;quot;PingFang SC&amp;quot;, Avenir, Tahoma, Arial, &amp;quot;Lantinghei SC&amp;quot;, &amp;quot;Microsoft Yahei&amp;quot;, &amp;quot;Hiragino Sans GB&amp;quot;, &amp;quot;Microsoft Sans Serif&amp;quot;, &amp;quot;WenQuanYi Micro Hei&amp;quot;, Helvetica, sans-serif; font-size: 16px; text-align: start;&quot;&gt;cport&lt;/span&gt;" style="text;html=1;resizable=0;autosize=1;align=center;verticalAlign=middle;points=[];fillColor=none;strokeColor=none;rounded=0;labelBackgroundColor=#FFFFFF;fontSize=18;fontColor=none;" vertex="1" parent="fH-QqKqAevxP8JKAihMR-18">
          <mxGeometry x="135" y="325" width="50" height="30" as="geometry" />
        </mxCell>
        <mxCell id="fH-QqKqAevxP8JKAihMR-13" value="......" style="text;html=1;resizable=0;autosize=1;align=center;verticalAlign=middle;points=[];fillColor=none;strokeColor=none;rounded=0;labelBackgroundColor=#FFFFFF;fontSize=18;fontColor=none;" vertex="1" parent="fH-QqKqAevxP8JKAihMR-18">
          <mxGeometry x="135" y="50" width="50" height="30" as="geometry" />
        </mxCell>
        <mxCell id="fH-QqKqAevxP8JKAihMR-2" value="&lt;span style=&quot;color: rgb(51, 51, 51); font-family: &amp;quot;PingFang SC&amp;quot;, Avenir, Tahoma, Arial, &amp;quot;Lantinghei SC&amp;quot;, &amp;quot;Microsoft Yahei&amp;quot;, &amp;quot;Hiragino Sans GB&amp;quot;, &amp;quot;Microsoft Sans Serif&amp;quot;, &amp;quot;WenQuanYi Micro Hei&amp;quot;, Helvetica, sans-serif; font-size: 16px; text-align: start; background-color: rgb(153, 204, 255);&quot;&gt;&lt;b style=&quot;&quot;&gt;clusterMsg&lt;/b&gt;&lt;/span&gt;" style="text;html=1;resizable=0;autosize=1;align=center;verticalAlign=middle;points=[];fillColor=none;strokeColor=none;rounded=0;" vertex="1" parent="fH-QqKqAevxP8JKAihMR-18">
          <mxGeometry x="110" y="10" width="100" height="20" as="geometry" />
        </mxCell>
        <mxCell id="fH-QqKqAevxP8JKAihMR-26" value="&lt;span style=&quot;color: rgb(51, 51, 51); font-family: &amp;quot;PingFang SC&amp;quot;, Avenir, Tahoma, Arial, &amp;quot;Lantinghei SC&amp;quot;, &amp;quot;Microsoft Yahei&amp;quot;, &amp;quot;Hiragino Sans GB&amp;quot;, &amp;quot;Microsoft Sans Serif&amp;quot;, &amp;quot;WenQuanYi Micro Hei&amp;quot;, Helvetica, sans-serif; font-size: 16px; text-align: start;&quot;&gt;myip[NET_IP_STR_LEN]&lt;/span&gt;" style="text;html=1;resizable=0;autosize=1;align=center;verticalAlign=middle;points=[];fillColor=none;strokeColor=none;rounded=0;labelBackgroundColor=#FFFFFF;fontSize=18;fontColor=none;" vertex="1" parent="fH-QqKqAevxP8JKAihMR-18">
          <mxGeometry x="65" y="290" width="190" height="30" as="geometry" />
        </mxCell>
        <mxCell id="fH-QqKqAevxP8JKAihMR-36" value="" style="rounded=0;whiteSpace=wrap;html=1;labelBackgroundColor=#FFFFFF;fontSize=18;fontColor=none;fillColor=#66B2FF;" vertex="1" parent="fH-QqKqAevxP8JKAihMR-18">
          <mxGeometry x="44.8" y="400" width="235.2" height="270" as="geometry" />
        </mxCell>
        <mxCell id="fH-QqKqAevxP8JKAihMR-37" value="&lt;span style=&quot;color: rgb(51, 51, 51); font-family: &amp;quot;PingFang SC&amp;quot;, Avenir, Tahoma, Arial, &amp;quot;Lantinghei SC&amp;quot;, &amp;quot;Microsoft Yahei&amp;quot;, &amp;quot;Hiragino Sans GB&amp;quot;, &amp;quot;Microsoft Sans Serif&amp;quot;, &amp;quot;WenQuanYi Micro Hei&amp;quot;, Helvetica, sans-serif; font-size: 16px; text-align: start;&quot;&gt;clusterMsgData&lt;/span&gt;" style="text;html=1;resizable=0;autosize=1;align=center;verticalAlign=middle;points=[];fillColor=none;strokeColor=none;rounded=0;labelBackgroundColor=#66B2FF;fontSize=18;fontColor=none;" vertex="1" parent="fH-QqKqAevxP8JKAihMR-18">
          <mxGeometry x="100" y="410" width="120" height="30" as="geometry" />
        </mxCell>
        <mxCell id="fH-QqKqAevxP8JKAihMR-54" value="" style="endArrow=classic;html=1;rounded=0;fontSize=14;fontColor=none;strokeWidth=2;" edge="1" parent="fH-QqKqAevxP8JKAihMR-18" source="fH-QqKqAevxP8JKAihMR-37">
          <mxGeometry width="50" height="50" relative="1" as="geometry">
            <mxPoint x="280" y="450" as="sourcePoint" />
            <mxPoint x="360" y="420" as="targetPoint" />
          </mxGeometry>
        </mxCell>
        <mxCell id="fH-QqKqAevxP8JKAihMR-47" value="" style="group" vertex="1" connectable="0" parent="fH-QqKqAevxP8JKAihMR-18">
          <mxGeometry x="360" y="320" width="190" height="200" as="geometry" />
        </mxCell>
        <mxCell id="fH-QqKqAevxP8JKAihMR-38" value="" style="rounded=0;whiteSpace=wrap;html=1;labelBackgroundColor=#66B2FF;fontSize=18;fontColor=none;fillColor=#66B2FF;" vertex="1" parent="fH-QqKqAevxP8JKAihMR-47">
          <mxGeometry width="190" height="200" as="geometry" />
        </mxCell>
        <mxCell id="fH-QqKqAevxP8JKAihMR-39" value="" style="endArrow=none;html=1;rounded=0;" edge="1" parent="fH-QqKqAevxP8JKAihMR-47">
          <mxGeometry width="50" height="50" relative="1" as="geometry">
            <mxPoint y="40" as="sourcePoint" />
            <mxPoint x="190" y="40" as="targetPoint" />
          </mxGeometry>
        </mxCell>
        <mxCell id="fH-QqKqAevxP8JKAihMR-44" value="&lt;span style=&quot;color: rgb(51, 51, 51); font-family: &amp;quot;PingFang SC&amp;quot;, Avenir, Tahoma, Arial, &amp;quot;Lantinghei SC&amp;quot;, &amp;quot;Microsoft Yahei&amp;quot;, &amp;quot;Hiragino Sans GB&amp;quot;, &amp;quot;Microsoft Sans Serif&amp;quot;, &amp;quot;WenQuanYi Micro Hei&amp;quot;, Helvetica, sans-serif; text-align: start; background-color: rgb(102, 178, 255);&quot;&gt;&lt;font style=&quot;font-size: 14px;&quot;&gt;clusterMsgDataGossip&lt;/font&gt;&lt;/span&gt;" style="text;html=1;resizable=0;autosize=1;align=center;verticalAlign=middle;points=[];fillColor=none;strokeColor=none;rounded=0;labelBackgroundColor=#66B2FF;fontSize=18;fontColor=none;" vertex="1" parent="fH-QqKqAevxP8JKAihMR-47">
          <mxGeometry x="17.399999999999977" y="10" width="150" height="30" as="geometry" />
        </mxCell>
        <mxCell id="fH-QqKqAevxP8JKAihMR-41" value="" style="endArrow=none;html=1;rounded=0;" edge="1" parent="fH-QqKqAevxP8JKAihMR-47">
          <mxGeometry width="50" height="50" relative="1" as="geometry">
            <mxPoint y="80" as="sourcePoint" />
            <mxPoint x="190" y="80" as="targetPoint" />
          </mxGeometry>
        </mxCell>
        <mxCell id="fH-QqKqAevxP8JKAihMR-42" value="" style="endArrow=none;html=1;rounded=0;" edge="1" parent="fH-QqKqAevxP8JKAihMR-47">
          <mxGeometry width="50" height="50" relative="1" as="geometry">
            <mxPoint y="120" as="sourcePoint" />
            <mxPoint x="190" y="120" as="targetPoint" />
          </mxGeometry>
        </mxCell>
        <mxCell id="fH-QqKqAevxP8JKAihMR-46" value="" style="endArrow=none;html=1;rounded=0;" edge="1" parent="fH-QqKqAevxP8JKAihMR-47">
          <mxGeometry width="50" height="50" relative="1" as="geometry">
            <mxPoint y="160" as="sourcePoint" />
            <mxPoint x="190" y="160" as="targetPoint" />
          </mxGeometry>
        </mxCell>
        <mxCell id="fH-QqKqAevxP8JKAihMR-77" value="" style="endArrow=classic;html=1;rounded=0;fontSize=14;fontColor=none;strokeWidth=2;" edge="1" parent="fH-QqKqAevxP8JKAihMR-18">
          <mxGeometry width="50" height="50" relative="1" as="geometry">
            <mxPoint x="430" y="320" as="sourcePoint" />
            <mxPoint x="470" y="240" as="targetPoint" />
          </mxGeometry>
        </mxCell>
        <mxCell id="fH-QqKqAevxP8JKAihMR-14" value="&lt;span style=&quot;color: rgb(51, 51, 51); font-family: &amp;quot;PingFang SC&amp;quot;, Avenir, Tahoma, Arial, &amp;quot;Lantinghei SC&amp;quot;, &amp;quot;Microsoft Yahei&amp;quot;, &amp;quot;Hiragino Sans GB&amp;quot;, &amp;quot;Microsoft Sans Serif&amp;quot;, &amp;quot;WenQuanYi Micro Hei&amp;quot;, Helvetica, sans-serif; font-size: 16px; text-align: start;&quot;&gt;totlen&lt;/span&gt;" style="text;html=1;resizable=0;autosize=1;align=center;verticalAlign=middle;points=[];fillColor=none;strokeColor=none;rounded=0;labelBackgroundColor=#FFFFFF;fontSize=18;fontColor=none;" vertex="1" parent="1">
          <mxGeometry x="328.4" y="130" width="60" height="30" as="geometry" />
        </mxCell>
        <mxCell id="fH-QqKqAevxP8JKAihMR-15" value="&lt;span style=&quot;color: rgb(51, 51, 51); font-family: &amp;quot;PingFang SC&amp;quot;, Avenir, Tahoma, Arial, &amp;quot;Lantinghei SC&amp;quot;, &amp;quot;Microsoft Yahei&amp;quot;, &amp;quot;Hiragino Sans GB&amp;quot;, &amp;quot;Microsoft Sans Serif&amp;quot;, &amp;quot;WenQuanYi Micro Hei&amp;quot;, Helvetica, sans-serif; font-size: 16px; text-align: start;&quot;&gt;type&lt;/span&gt;" style="text;html=1;resizable=0;autosize=1;align=center;verticalAlign=middle;points=[];fillColor=none;strokeColor=none;rounded=0;labelBackgroundColor=#FFFFFF;fontSize=18;fontColor=none;" vertex="1" parent="1">
          <mxGeometry x="334" y="170" width="50" height="30" as="geometry" />
        </mxCell>
        <mxCell id="fH-QqKqAevxP8JKAihMR-19" value="" style="endArrow=none;html=1;rounded=0;exitX=0;exitY=0.25;exitDx=0;exitDy=0;" edge="1" parent="1">
          <mxGeometry width="50" height="50" relative="1" as="geometry">
            <mxPoint x="244.79999999999995" y="120" as="sourcePoint" />
            <mxPoint x="480" y="120" as="targetPoint" />
          </mxGeometry>
        </mxCell>
        <mxCell id="fH-QqKqAevxP8JKAihMR-20" value="" style="endArrow=none;html=1;rounded=0;exitX=0;exitY=0.25;exitDx=0;exitDy=0;" edge="1" parent="1">
          <mxGeometry width="50" height="50" relative="1" as="geometry">
            <mxPoint x="244.79999999999995" y="240" as="sourcePoint" />
            <mxPoint x="480" y="240" as="targetPoint" />
          </mxGeometry>
        </mxCell>
        <mxCell id="fH-QqKqAevxP8JKAihMR-21" value="" style="endArrow=none;html=1;rounded=0;exitX=0;exitY=0.25;exitDx=0;exitDy=0;" edge="1" parent="1">
          <mxGeometry width="50" height="50" relative="1" as="geometry">
            <mxPoint x="244.79999999999995" y="280" as="sourcePoint" />
            <mxPoint x="480" y="280" as="targetPoint" />
          </mxGeometry>
        </mxCell>
        <mxCell id="fH-QqKqAevxP8JKAihMR-22" value="" style="endArrow=none;html=1;rounded=0;exitX=0;exitY=0.25;exitDx=0;exitDy=0;" edge="1" parent="1">
          <mxGeometry width="50" height="50" relative="1" as="geometry">
            <mxPoint x="244.79999999999995" y="320" as="sourcePoint" />
            <mxPoint x="480" y="320" as="targetPoint" />
          </mxGeometry>
        </mxCell>
        <mxCell id="fH-QqKqAevxP8JKAihMR-23" value="&lt;span style=&quot;color: rgb(51, 51, 51); font-family: &amp;quot;PingFang SC&amp;quot;, Avenir, Tahoma, Arial, &amp;quot;Lantinghei SC&amp;quot;, &amp;quot;Microsoft Yahei&amp;quot;, &amp;quot;Hiragino Sans GB&amp;quot;, &amp;quot;Microsoft Sans Serif&amp;quot;, &amp;quot;WenQuanYi Micro Hei&amp;quot;, Helvetica, sans-serif; font-size: 16px; text-align: start;&quot;&gt;myslots[CLUSTER_SLOTS/8]&lt;/span&gt;" style="text;html=1;resizable=0;autosize=1;align=center;verticalAlign=middle;points=[];fillColor=none;strokeColor=none;rounded=0;labelBackgroundColor=#FFFFFF;fontSize=18;fontColor=none;" vertex="1" parent="1">
          <mxGeometry x="250" y="290" width="220" height="30" as="geometry" />
        </mxCell>
        <mxCell id="fH-QqKqAevxP8JKAihMR-24" value="" style="endArrow=none;html=1;rounded=0;exitX=0;exitY=0.25;exitDx=0;exitDy=0;" edge="1" parent="1">
          <mxGeometry width="50" height="50" relative="1" as="geometry">
            <mxPoint x="244.79999999999995" y="360" as="sourcePoint" />
            <mxPoint x="480" y="360" as="targetPoint" />
          </mxGeometry>
        </mxCell>
        <mxCell id="fH-QqKqAevxP8JKAihMR-25" value="" style="endArrow=none;html=1;rounded=0;exitX=0;exitY=0.25;exitDx=0;exitDy=0;" edge="1" parent="1">
          <mxGeometry width="50" height="50" relative="1" as="geometry">
            <mxPoint x="244.79999999999995" y="400" as="sourcePoint" />
            <mxPoint x="480" y="400" as="targetPoint" />
          </mxGeometry>
        </mxCell>
        <mxCell id="fH-QqKqAevxP8JKAihMR-28" value="" style="endArrow=none;html=1;rounded=0;exitX=0;exitY=0.25;exitDx=0;exitDy=0;" edge="1" parent="1">
          <mxGeometry width="50" height="50" relative="1" as="geometry">
            <mxPoint x="244.79999999999995" y="440" as="sourcePoint" />
            <mxPoint x="480" y="440" as="targetPoint" />
          </mxGeometry>
        </mxCell>
        <mxCell id="fH-QqKqAevxP8JKAihMR-29" value="......" style="text;html=1;resizable=0;autosize=1;align=center;verticalAlign=middle;points=[];fillColor=none;strokeColor=none;rounded=0;labelBackgroundColor=#FFFFFF;fontSize=18;fontColor=none;" vertex="1" parent="1">
          <mxGeometry x="335" y="410" width="50" height="30" as="geometry" />
        </mxCell>
        <mxCell id="fH-QqKqAevxP8JKAihMR-33" value="" style="endArrow=none;html=1;rounded=0;exitX=0;exitY=0.25;exitDx=0;exitDy=0;" edge="1" parent="1">
          <mxGeometry width="50" height="50" relative="1" as="geometry">
            <mxPoint x="244.79999999999995" y="200" as="sourcePoint" />
            <mxPoint x="480" y="200" as="targetPoint" />
          </mxGeometry>
        </mxCell>
        <mxCell id="fH-QqKqAevxP8JKAihMR-35" value="......" style="text;html=1;resizable=0;autosize=1;align=center;verticalAlign=middle;points=[];fillColor=none;strokeColor=none;rounded=0;labelBackgroundColor=#FFFFFF;fontSize=18;fontColor=none;" vertex="1" parent="1">
          <mxGeometry x="335" y="210" width="50" height="30" as="geometry" />
        </mxCell>
        <mxCell id="fH-QqKqAevxP8JKAihMR-49" value="&lt;span style=&quot;color: rgb(51, 51, 51); font-family: &amp;quot;PingFang SC&amp;quot;, Avenir, Tahoma, Arial, &amp;quot;Lantinghei SC&amp;quot;, &amp;quot;Microsoft Yahei&amp;quot;, &amp;quot;Hiragino Sans GB&amp;quot;, &amp;quot;Microsoft Sans Serif&amp;quot;, &amp;quot;WenQuanYi Micro Hei&amp;quot;, Helvetica, sans-serif; text-align: start; background-color: rgb(102, 178, 255);&quot;&gt;&lt;font style=&quot;font-size: 14px;&quot;&gt;clusterMsgDataFail&lt;/font&gt;&lt;/span&gt;" style="text;html=1;resizable=0;autosize=1;align=center;verticalAlign=middle;points=[];fillColor=none;strokeColor=none;rounded=0;labelBackgroundColor=#66B2FF;fontSize=18;fontColor=none;" vertex="1" parent="1">
          <mxGeometry x="587.4" y="410" width="130" height="30" as="geometry" />
        </mxCell>
        <mxCell id="fH-QqKqAevxP8JKAihMR-50" value="&lt;span style=&quot;color: rgb(51, 51, 51); font-family: &amp;quot;PingFang SC&amp;quot;, Avenir, Tahoma, Arial, &amp;quot;Lantinghei SC&amp;quot;, &amp;quot;Microsoft Yahei&amp;quot;, &amp;quot;Hiragino Sans GB&amp;quot;, &amp;quot;Microsoft Sans Serif&amp;quot;, &amp;quot;WenQuanYi Micro Hei&amp;quot;, Helvetica, sans-serif; font-size: 16px; text-align: start; background-color: rgb(102, 178, 255);&quot;&gt;clusterMsgDataPublish&lt;/span&gt;" style="text;html=1;resizable=0;autosize=1;align=center;verticalAlign=middle;points=[];fillColor=none;strokeColor=none;rounded=0;labelBackgroundColor=#66B2FF;fontSize=18;fontColor=none;" vertex="1" parent="1">
          <mxGeometry x="567.4" y="450" width="170" height="30" as="geometry" />
        </mxCell>
        <mxCell id="fH-QqKqAevxP8JKAihMR-51" value="&lt;span style=&quot;color: rgb(51, 51, 51); font-family: &amp;quot;PingFang SC&amp;quot;, Avenir, Tahoma, Arial, &amp;quot;Lantinghei SC&amp;quot;, &amp;quot;Microsoft Yahei&amp;quot;, &amp;quot;Hiragino Sans GB&amp;quot;, &amp;quot;Microsoft Sans Serif&amp;quot;, &amp;quot;WenQuanYi Micro Hei&amp;quot;, Helvetica, sans-serif; font-size: 16px; text-align: start; background-color: rgb(102, 178, 255);&quot;&gt;clusterMsgDataUpdate&lt;/span&gt;" style="text;html=1;resizable=0;autosize=1;align=center;verticalAlign=middle;points=[];fillColor=none;strokeColor=none;rounded=0;labelBackgroundColor=#66B2FF;fontSize=18;fontColor=none;" vertex="1" parent="1">
          <mxGeometry x="567.4" y="491" width="170" height="30" as="geometry" />
        </mxCell>
        <mxCell id="fH-QqKqAevxP8JKAihMR-52" value="&lt;span style=&quot;color: rgb(51, 51, 51); font-family: &amp;quot;PingFang SC&amp;quot;, Avenir, Tahoma, Arial, &amp;quot;Lantinghei SC&amp;quot;, &amp;quot;Microsoft Yahei&amp;quot;, &amp;quot;Hiragino Sans GB&amp;quot;, &amp;quot;Microsoft Sans Serif&amp;quot;, &amp;quot;WenQuanYi Micro Hei&amp;quot;, Helvetica, sans-serif; font-size: 16px; text-align: start; background-color: rgb(102, 178, 255);&quot;&gt;clusterMsgModule&lt;/span&gt;" style="text;html=1;resizable=0;autosize=1;align=center;verticalAlign=middle;points=[];fillColor=none;strokeColor=none;rounded=0;labelBackgroundColor=#66B2FF;fontSize=18;fontColor=none;" vertex="1" parent="1">
          <mxGeometry x="582.4" y="531" width="140" height="30" as="geometry" />
        </mxCell>
        <mxCell id="fH-QqKqAevxP8JKAihMR-53" value="" style="endArrow=none;html=1;rounded=0;exitX=0;exitY=0.25;exitDx=0;exitDy=0;" edge="1" parent="1">
          <mxGeometry width="50" height="50" relative="1" as="geometry">
            <mxPoint x="244.79999999999995" y="480" as="sourcePoint" />
            <mxPoint x="480" y="480" as="targetPoint" />
          </mxGeometry>
        </mxCell>
        <mxCell id="fH-QqKqAevxP8JKAihMR-79" value="" style="endArrow=none;html=1;rounded=0;entryX=1;entryY=0.371;entryDx=0;entryDy=0;entryPerimeter=0;" edge="1" parent="1" target="fH-QqKqAevxP8JKAihMR-78">
          <mxGeometry width="50" height="50" relative="1" as="geometry">
            <mxPoint x="670" y="80" as="sourcePoint" />
            <mxPoint x="840" y="80" as="targetPoint" />
          </mxGeometry>
        </mxCell>
        <mxCell id="fH-QqKqAevxP8JKAihMR-80" value="" style="endArrow=none;html=1;rounded=0;entryX=1;entryY=0.25;entryDx=0;entryDy=0;" edge="1" parent="1" target="fH-QqKqAevxP8JKAihMR-78">
          <mxGeometry width="50" height="50" relative="1" as="geometry">
            <mxPoint x="670" y="40" as="sourcePoint" />
            <mxPoint x="840" y="40" as="targetPoint" />
          </mxGeometry>
        </mxCell>
        <mxCell id="fH-QqKqAevxP8JKAihMR-81" value="" style="endArrow=none;html=1;rounded=0;" edge="1" parent="1">
          <mxGeometry width="50" height="50" relative="1" as="geometry">
            <mxPoint x="670" as="sourcePoint" />
            <mxPoint x="880" as="targetPoint" />
          </mxGeometry>
        </mxCell>
        <mxCell id="fH-QqKqAevxP8JKAihMR-82" value="" style="endArrow=none;html=1;rounded=0;entryX=1;entryY=0.5;entryDx=0;entryDy=0;" edge="1" parent="1" target="fH-QqKqAevxP8JKAihMR-78">
          <mxGeometry width="50" height="50" relative="1" as="geometry">
            <mxPoint x="670" y="120" as="sourcePoint" />
            <mxPoint x="840" y="120" as="targetPoint" />
          </mxGeometry>
        </mxCell>
        <mxCell id="fH-QqKqAevxP8JKAihMR-83" value="" style="endArrow=none;html=1;rounded=0;entryX=1.008;entryY=0.624;entryDx=0;entryDy=0;entryPerimeter=0;" edge="1" parent="1" target="fH-QqKqAevxP8JKAihMR-78">
          <mxGeometry width="50" height="50" relative="1" as="geometry">
            <mxPoint x="670" y="160" as="sourcePoint" />
            <mxPoint x="840" y="160" as="targetPoint" />
          </mxGeometry>
        </mxCell>
        <mxCell id="fH-QqKqAevxP8JKAihMR-84" value="" style="endArrow=none;html=1;rounded=0;entryX=1;entryY=0.75;entryDx=0;entryDy=0;" edge="1" parent="1" target="fH-QqKqAevxP8JKAihMR-78">
          <mxGeometry width="50" height="50" relative="1" as="geometry">
            <mxPoint x="671" y="200" as="sourcePoint" />
            <mxPoint x="841" y="200" as="targetPoint" />
          </mxGeometry>
        </mxCell>
        <mxCell id="fH-QqKqAevxP8JKAihMR-85" value="" style="endArrow=none;html=1;rounded=0;" edge="1" parent="1">
          <mxGeometry width="50" height="50" relative="1" as="geometry">
            <mxPoint x="671" y="239" as="sourcePoint" />
            <mxPoint x="880" y="240" as="targetPoint" />
          </mxGeometry>
        </mxCell>
        <mxCell id="fH-QqKqAevxP8JKAihMR-98" value="&lt;span style=&quot;color: rgb(51, 51, 51); font-family: &amp;quot;PingFang SC&amp;quot;, Avenir, Tahoma, Arial, &amp;quot;Lantinghei SC&amp;quot;, &amp;quot;Microsoft Yahei&amp;quot;, &amp;quot;Hiragino Sans GB&amp;quot;, &amp;quot;Microsoft Sans Serif&amp;quot;, &amp;quot;WenQuanYi Micro Hei&amp;quot;, Helvetica, sans-serif; text-align: start;&quot;&gt;nodename[CLUSTER_NAMELEN]&lt;/span&gt;" style="text;html=1;resizable=0;autosize=1;align=center;verticalAlign=middle;points=[];fillColor=none;strokeColor=none;rounded=0;labelBackgroundColor=#66B2FF;fontSize=14;fontColor=none;" vertex="1" parent="1">
          <mxGeometry x="665" y="-30" width="220" height="20" as="geometry" />
        </mxCell>
        <mxCell id="fH-QqKqAevxP8JKAihMR-99" value="&lt;span style=&quot;color: rgb(51, 51, 51); font-family: &amp;quot;PingFang SC&amp;quot;, Avenir, Tahoma, Arial, &amp;quot;Lantinghei SC&amp;quot;, &amp;quot;Microsoft Yahei&amp;quot;, &amp;quot;Hiragino Sans GB&amp;quot;, &amp;quot;Microsoft Sans Serif&amp;quot;, &amp;quot;WenQuanYi Micro Hei&amp;quot;, Helvetica, sans-serif; font-size: 16px; text-align: start;&quot;&gt;notused1&lt;/span&gt;" style="text;html=1;resizable=0;autosize=1;align=center;verticalAlign=middle;points=[];fillColor=none;strokeColor=none;rounded=0;labelBackgroundColor=#66B2FF;fontSize=14;fontColor=none;" vertex="1" parent="1">
          <mxGeometry x="730" y="255" width="80" height="20" as="geometry" />
        </mxCell>
        <mxCell id="fH-QqKqAevxP8JKAihMR-100" value="&lt;span style=&quot;color: rgb(51, 51, 51); font-family: &amp;quot;PingFang SC&amp;quot;, Avenir, Tahoma, Arial, &amp;quot;Lantinghei SC&amp;quot;, &amp;quot;Microsoft Yahei&amp;quot;, &amp;quot;Hiragino Sans GB&amp;quot;, &amp;quot;Microsoft Sans Serif&amp;quot;, &amp;quot;WenQuanYi Micro Hei&amp;quot;, Helvetica, sans-serif; font-size: 16px; text-align: start;&quot;&gt;flags&lt;/span&gt;" style="text;html=1;resizable=0;autosize=1;align=center;verticalAlign=middle;points=[];fillColor=none;strokeColor=none;rounded=0;labelBackgroundColor=#66B2FF;fontSize=14;fontColor=none;" vertex="1" parent="1">
          <mxGeometry x="745" y="215" width="50" height="20" as="geometry" />
        </mxCell>
        <mxCell id="fH-QqKqAevxP8JKAihMR-101" value="&lt;span style=&quot;color: rgb(51, 51, 51); font-family: &amp;quot;PingFang SC&amp;quot;, Avenir, Tahoma, Arial, &amp;quot;Lantinghei SC&amp;quot;, &amp;quot;Microsoft Yahei&amp;quot;, &amp;quot;Hiragino Sans GB&amp;quot;, &amp;quot;Microsoft Sans Serif&amp;quot;, &amp;quot;WenQuanYi Micro Hei&amp;quot;, Helvetica, sans-serif; font-size: 16px; text-align: start;&quot;&gt;cport&lt;/span&gt;" style="text;html=1;resizable=0;autosize=1;align=center;verticalAlign=middle;points=[];fillColor=none;strokeColor=none;rounded=0;labelBackgroundColor=#66B2FF;fontSize=14;fontColor=none;" vertex="1" parent="1">
          <mxGeometry x="745" y="175" width="50" height="20" as="geometry" />
        </mxCell>
        <mxCell id="fH-QqKqAevxP8JKAihMR-102" value="&lt;span style=&quot;color: rgb(51, 51, 51); font-family: &amp;quot;PingFang SC&amp;quot;, Avenir, Tahoma, Arial, &amp;quot;Lantinghei SC&amp;quot;, &amp;quot;Microsoft Yahei&amp;quot;, &amp;quot;Hiragino Sans GB&amp;quot;, &amp;quot;Microsoft Sans Serif&amp;quot;, &amp;quot;WenQuanYi Micro Hei&amp;quot;, Helvetica, sans-serif; text-align: start;&quot;&gt;port&lt;/span&gt;" style="text;html=1;resizable=0;autosize=1;align=center;verticalAlign=middle;points=[];fillColor=none;strokeColor=none;rounded=0;labelBackgroundColor=#66B2FF;fontSize=14;fontColor=none;" vertex="1" parent="1">
          <mxGeometry x="750" y="135" width="40" height="20" as="geometry" />
        </mxCell>
        <mxCell id="fH-QqKqAevxP8JKAihMR-103" value="&lt;span style=&quot;color: rgb(51, 51, 51); font-family: &amp;quot;PingFang SC&amp;quot;, Avenir, Tahoma, Arial, &amp;quot;Lantinghei SC&amp;quot;, &amp;quot;Microsoft Yahei&amp;quot;, &amp;quot;Hiragino Sans GB&amp;quot;, &amp;quot;Microsoft Sans Serif&amp;quot;, &amp;quot;WenQuanYi Micro Hei&amp;quot;, Helvetica, sans-serif; font-size: 16px; text-align: start;&quot;&gt;ip[NET_IP_STR_LEN]&lt;/span&gt;" style="text;html=1;resizable=0;autosize=1;align=center;verticalAlign=middle;points=[];fillColor=none;strokeColor=none;rounded=0;labelBackgroundColor=#66B2FF;fontSize=14;fontColor=none;" vertex="1" parent="1">
          <mxGeometry x="691" y="96" width="170" height="20" as="geometry" />
        </mxCell>
        <mxCell id="fH-QqKqAevxP8JKAihMR-104" value="&lt;span style=&quot;color: rgb(51, 51, 51); font-family: &amp;quot;PingFang SC&amp;quot;, Avenir, Tahoma, Arial, &amp;quot;Lantinghei SC&amp;quot;, &amp;quot;Microsoft Yahei&amp;quot;, &amp;quot;Hiragino Sans GB&amp;quot;, &amp;quot;Microsoft Sans Serif&amp;quot;, &amp;quot;WenQuanYi Micro Hei&amp;quot;, Helvetica, sans-serif; font-size: 16px; text-align: start;&quot;&gt;pong_received&lt;/span&gt;" style="text;html=1;resizable=0;autosize=1;align=center;verticalAlign=middle;points=[];fillColor=none;strokeColor=none;rounded=0;labelBackgroundColor=#66B2FF;fontSize=14;fontColor=none;" vertex="1" parent="1">
          <mxGeometry x="715" y="50" width="120" height="20" as="geometry" />
        </mxCell>
        <mxCell id="fH-QqKqAevxP8JKAihMR-105" value="&lt;span style=&quot;color: rgb(51, 51, 51); font-family: &amp;quot;PingFang SC&amp;quot;, Avenir, Tahoma, Arial, &amp;quot;Lantinghei SC&amp;quot;, &amp;quot;Microsoft Yahei&amp;quot;, &amp;quot;Hiragino Sans GB&amp;quot;, &amp;quot;Microsoft Sans Serif&amp;quot;, &amp;quot;WenQuanYi Micro Hei&amp;quot;, Helvetica, sans-serif; font-size: 16px; text-align: start;&quot;&gt;ping_sent&lt;/span&gt;" style="text;html=1;resizable=0;autosize=1;align=center;verticalAlign=middle;points=[];fillColor=none;strokeColor=none;rounded=0;labelBackgroundColor=#66B2FF;fontSize=14;fontColor=none;" vertex="1" parent="1">
          <mxGeometry x="735" y="10" width="80" height="20" as="geometry" />
        </mxCell>
        <mxCell id="fH-QqKqAevxP8JKAihMR-107" value="&lt;span style=&quot;color: rgb(51, 51, 51); font-family: &amp;quot;PingFang SC&amp;quot;, Avenir, Tahoma, Arial, &amp;quot;Lantinghei SC&amp;quot;, &amp;quot;Microsoft Yahei&amp;quot;, &amp;quot;Hiragino Sans GB&amp;quot;, &amp;quot;Microsoft Sans Serif&amp;quot;, &amp;quot;WenQuanYi Micro Hei&amp;quot;, Helvetica, sans-serif; font-size: 16px; text-align: start;&quot;&gt;节点名称&lt;/span&gt;" style="text;html=1;resizable=0;autosize=1;align=center;verticalAlign=middle;points=[];fillColor=none;strokeColor=none;rounded=0;labelBackgroundColor=#FFFFFF;fontSize=18;fontColor=none;" vertex="1" parent="1">
          <mxGeometry x="880" y="-35" width="80" height="30" as="geometry" />
        </mxCell>
        <mxCell id="fH-QqKqAevxP8JKAihMR-108" value="&lt;span style=&quot;color: rgb(51, 51, 51); font-family: &amp;quot;PingFang SC&amp;quot;, Avenir, Tahoma, Arial, &amp;quot;Lantinghei SC&amp;quot;, &amp;quot;Microsoft Yahei&amp;quot;, &amp;quot;Hiragino Sans GB&amp;quot;, &amp;quot;Microsoft Sans Serif&amp;quot;, &amp;quot;WenQuanYi Micro Hei&amp;quot;, Helvetica, sans-serif; font-size: 16px; text-align: start;&quot;&gt;节点发送Ping的时间&lt;/span&gt;" style="text;html=1;resizable=0;autosize=1;align=center;verticalAlign=middle;points=[];fillColor=none;strokeColor=none;rounded=0;labelBackgroundColor=#FFFFFF;fontSize=18;fontColor=none;" vertex="1" parent="1">
          <mxGeometry x="880" y="10" width="160" height="30" as="geometry" />
        </mxCell>
        <mxCell id="fH-QqKqAevxP8JKAihMR-109" value="&lt;span style=&quot;color: rgb(51, 51, 51); font-family: &amp;quot;PingFang SC&amp;quot;, Avenir, Tahoma, Arial, &amp;quot;Lantinghei SC&amp;quot;, &amp;quot;Microsoft Yahei&amp;quot;, &amp;quot;Hiragino Sans GB&amp;quot;, &amp;quot;Microsoft Sans Serif&amp;quot;, &amp;quot;WenQuanYi Micro Hei&amp;quot;, Helvetica, sans-serif; font-size: 16px; text-align: start;&quot;&gt;节点收到Pong的时间&lt;/span&gt;" style="text;html=1;resizable=0;autosize=1;align=center;verticalAlign=middle;points=[];fillColor=none;strokeColor=none;rounded=0;labelBackgroundColor=#FFFFFF;fontSize=18;fontColor=none;" vertex="1" parent="1">
          <mxGeometry x="880" y="50" width="160" height="30" as="geometry" />
        </mxCell>
        <mxCell id="fH-QqKqAevxP8JKAihMR-110" value="&lt;span style=&quot;color: rgb(51, 51, 51); font-family: &amp;quot;PingFang SC&amp;quot;, Avenir, Tahoma, Arial, &amp;quot;Lantinghei SC&amp;quot;, &amp;quot;Microsoft Yahei&amp;quot;, &amp;quot;Hiragino Sans GB&amp;quot;, &amp;quot;Microsoft Sans Serif&amp;quot;, &amp;quot;WenQuanYi Micro Hei&amp;quot;, Helvetica, sans-serif; font-size: 16px; text-align: start;&quot;&gt;节点IP&lt;/span&gt;" style="text;html=1;resizable=0;autosize=1;align=center;verticalAlign=middle;points=[];fillColor=none;strokeColor=none;rounded=0;labelBackgroundColor=#FFFFFF;fontSize=18;fontColor=none;" vertex="1" parent="1">
          <mxGeometry x="880" y="86" width="60" height="30" as="geometry" />
        </mxCell>
        <mxCell id="fH-QqKqAevxP8JKAihMR-111" value="&lt;span style=&quot;color: rgb(51, 51, 51); font-family: &amp;quot;PingFang SC&amp;quot;, Avenir, Tahoma, Arial, &amp;quot;Lantinghei SC&amp;quot;, &amp;quot;Microsoft Yahei&amp;quot;, &amp;quot;Hiragino Sans GB&amp;quot;, &amp;quot;Microsoft Sans Serif&amp;quot;, &amp;quot;WenQuanYi Micro Hei&amp;quot;, Helvetica, sans-serif; font-size: 16px; text-align: start;&quot;&gt;节点和客户端的通信端口&lt;/span&gt;" style="text;html=1;resizable=0;autosize=1;align=center;verticalAlign=middle;points=[];fillColor=none;strokeColor=none;rounded=0;labelBackgroundColor=#FFFFFF;fontSize=18;fontColor=none;" vertex="1" parent="1">
          <mxGeometry x="880" y="130" width="190" height="30" as="geometry" />
        </mxCell>
        <mxCell id="fH-QqKqAevxP8JKAihMR-112" value="&lt;span style=&quot;color: rgb(51, 51, 51); font-family: &amp;quot;PingFang SC&amp;quot;, Avenir, Tahoma, Arial, &amp;quot;Lantinghei SC&amp;quot;, &amp;quot;Microsoft Yahei&amp;quot;, &amp;quot;Hiragino Sans GB&amp;quot;, &amp;quot;Microsoft Sans Serif&amp;quot;, &amp;quot;WenQuanYi Micro Hei&amp;quot;, Helvetica, sans-serif; font-size: 16px; text-align: start;&quot;&gt;节点用于集群通信的端口&lt;/span&gt;" style="text;html=1;resizable=0;autosize=1;align=center;verticalAlign=middle;points=[];fillColor=none;strokeColor=none;rounded=0;labelBackgroundColor=#FFFFFF;fontSize=18;fontColor=none;" vertex="1" parent="1">
          <mxGeometry x="880" y="170" width="190" height="30" as="geometry" />
        </mxCell>
        <mxCell id="fH-QqKqAevxP8JKAihMR-113" value="&lt;span style=&quot;color: rgb(51, 51, 51); font-family: &amp;quot;PingFang SC&amp;quot;, Avenir, Tahoma, Arial, &amp;quot;Lantinghei SC&amp;quot;, &amp;quot;Microsoft Yahei&amp;quot;, &amp;quot;Hiragino Sans GB&amp;quot;, &amp;quot;Microsoft Sans Serif&amp;quot;, &amp;quot;WenQuanYi Micro Hei&amp;quot;, Helvetica, sans-serif; font-size: 16px; text-align: start;&quot;&gt;节点的标记&lt;/span&gt;" style="text;html=1;resizable=0;autosize=1;align=center;verticalAlign=middle;points=[];fillColor=none;strokeColor=none;rounded=0;labelBackgroundColor=#FFFFFF;fontSize=18;fontColor=none;" vertex="1" parent="1">
          <mxGeometry x="880" y="210" width="100" height="30" as="geometry" />
        </mxCell>
        <mxCell id="fH-QqKqAevxP8JKAihMR-114" value="&lt;span style=&quot;color: rgb(51, 51, 51); font-family: &amp;quot;PingFang SC&amp;quot;, Avenir, Tahoma, Arial, &amp;quot;Lantinghei SC&amp;quot;, &amp;quot;Microsoft Yahei&amp;quot;, &amp;quot;Hiragino Sans GB&amp;quot;, &amp;quot;Microsoft Sans Serif&amp;quot;, &amp;quot;WenQuanYi Micro Hei&amp;quot;, Helvetica, sans-serif; font-size: 16px; text-align: start;&quot;&gt;未用字段&lt;/span&gt;" style="text;html=1;resizable=0;autosize=1;align=center;verticalAlign=middle;points=[];fillColor=none;strokeColor=none;rounded=0;labelBackgroundColor=#FFFFFF;fontSize=18;fontColor=none;" vertex="1" parent="1">
          <mxGeometry x="880" y="250" width="80" height="30" as="geometry" />
        </mxCell>
      </root>
    </mxGraphModel>
  </diagram>
</mxfile>
